<?xml version="1.0" encoding="utf-8"?>
<!-- Svg Vector Icons : http://www.onlinewebfonts.com/icon -->
<!DOCTYPE svg PUBLIC "-//W3C//DTD SVG 1.1//EN" "http://www.w3.org/Graphics/SVG/1.1/DTD/svg11.dtd">
<svg version="1.1" xmlns="http://www.w3.org/2000/svg" xmlns:xlink="http://www.w3.org/1999/xlink" x="0px" y="0px" viewBox="0 0 1000 1000" enable-background="new 0 0 1000 1000" xml:space="preserve">
<metadata> Svg Vector Icons : http://www.onlinewebfonts.com/icon </metadata>
<g><path d="M990,512c0,106.8-31.2,202.8-93.5,288.1c-62.3,85.3-142.8,144.3-241.5,177c-11.5,2.1-19.9,0.6-25.2-4.5c-5.3-5.1-8-11.5-8-19.2V818.9c0-41.3-11.1-71.5-33.2-90.6c24.2-2.5,46-6.4,65.4-11.5c19.3-5.1,39.3-13.4,60-24.9c20.7-11.5,37.9-25.6,51.7-42.4c13.8-16.8,25.1-39.1,33.8-67c8.7-27.8,13.1-59.9,13.1-96c0-51.5-16.8-95.3-50.4-131.4c15.7-38.7,14-82.1-5.1-130.2c-11.9-3.8-29.1-1.5-51.7,7c-22.5,8.5-42.1,17.9-58.7,28.1l-24.3,15.3c-39.6-11.1-80.4-16.6-122.5-16.6c-42.1,0-83,5.5-122.5,16.6c-6.8-4.7-15.9-10.4-27.1-17.2c-11.3-6.8-29-15-53.3-24.6c-24.2-9.6-42.5-12.4-54.9-8.6C223.4,273,222,316.3,237.7,355c-33.6,36.2-50.4,80-50.4,131.4c0,36.2,4.4,68.1,13.1,95.7c8.7,27.7,19.9,50,33.5,67s30.8,31.3,51.4,42.7c20.6,11.5,40.6,19.8,60,24.9c19.4,5.1,41.2,8.9,65.4,11.5c-17,15.3-27.4,37.2-31.3,65.7c-8.9,4.3-18.5,7.5-28.7,9.6c-10.2,2.1-22.3,3.2-36.4,3.2s-28-4.6-41.8-13.7c-13.8-9.1-25.6-22.4-35.4-39.9c-8.1-13.6-18.4-24.7-30.9-33.2c-12.6-8.5-23.1-13.6-31.6-15.3l-12.8-1.9c-8.9,0-15.1,1-18.5,2.9c-3.4,1.9-4.5,4.3-3.2,7.3c1.3,3,3.2,6,5.8,8.9c2.5,3,5.3,5.5,8.3,7.6l4.5,3.2c9.4,4.3,18.6,12.3,27.8,24.3c9.1,11.9,15.9,22.8,20.1,32.5l6.4,14.7c5.5,16.2,14.9,29.3,28.1,39.2c13.2,10,27.4,16.4,42.7,19.1c15.3,2.8,30.1,4.3,44.3,4.5c14.3,0.2,26.1-0.6,35.4-2.3l14.7-2.5c0,16.2,0.1,35.1,0.3,56.8c0.2,21.7,0.3,33.2,0.3,34.4c0,7.6-2.8,14-8.3,19.2c-5.5,5.1-14,6.6-25.5,4.5c-98.7-32.8-179.2-91.8-241.5-177C41.2,714.7,10,618.7,10,511.9c0-88.9,21.9-170.9,65.7-246S178.9,131.4,254,87.6s157.1-65.7,246-65.7c88.9,0,170.9,21.9,246,65.7c75.1,43.8,134.5,103.2,178.3,178.3C968.1,341,990,423,990,511.9L990,512z"/></g>
</svg>