<?xml version="1.0" encoding="UTF-8" standalone="no"?>
<!-- Svg Vector Icons : http://www.onlinewebfonts.com/icon -->

<svg
   version="1.1"
   x="0px"
   y="0px"
   viewBox="0 0 1000 1000"
   enable-background="new 0 0 1000 1000"
   xml:space="preserve"
   id="svg46"
   sodipodi:docname="ic_launcher.svg"
   inkscape:export-filename="D:\Projekti\Sajmons\CollimationCircles\CollimationCircles\Resources\Images\ic_launcher.png"
   inkscape:export-xdpi="3.1300001"
   inkscape:export-ydpi="3.1300001"
   inkscape:version="1.1.1 (3bf5ae0d25, 2021-09-20)"
   xmlns:inkscape="http://www.inkscape.org/namespaces/inkscape"
   xmlns:sodipodi="http://sodipodi.sourceforge.net/DTD/sodipodi-0.dtd"
   xmlns="http://www.w3.org/2000/svg"
   xmlns:svg="http://www.w3.org/2000/svg"><defs
   id="defs50" /><sodipodi:namedview
   id="namedview48"
   pagecolor="#ffffff"
   bordercolor="#666666"
   borderopacity="1.0"
   inkscape:pageshadow="2"
   inkscape:pageopacity="0.0"
   inkscape:pagecheckerboard="true"
   showgrid="false"
   inkscape:zoom="0.824"
   inkscape:cx="390.1699"
   inkscape:cy="500.6068"
   inkscape:window-width="1920"
   inkscape:window-height="1009"
   inkscape:window-x="-8"
   inkscape:window-y="-8"
   inkscape:window-maximized="1"
   inkscape:current-layer="svg46" />
<metadata
   id="metadata2"> Svg Vector Icons : http://www.onlinewebfonts.com/icon </metadata>
<g
   id="g44"
   style="fill:#ffffff"><g
     id="g12"
     style="fill:#ffffff"><g
       id="g10"
       style="fill:#ffffff"><path
         d="M500,366.4c-75.7,0-133.6,57.9-133.6,133.6c0,75.7,57.9,133.6,133.6,133.6c75.7,0,133.6-57.9,133.6-133.6C633.6,424.3,575.7,366.4,500,366.4z M500,589.1c-49,0-89.1-40.1-89.1-89.1c0-49,40.1-89.1,89.1-89.1c49,0,89.1,40.1,89.1,89.1C589.1,549,549,589.1,500,589.1z"
         id="path4"
         style="fill:#ffffff" /><path
         d="M500,188.2c-173.7,0-311.8,138.1-311.8,311.8c0,173.7,138.1,311.8,311.8,311.8c173.7,0,311.8-138.1,311.8-311.8C811.8,326.3,673.7,188.2,500,188.2z M500,767.3C353,767.3,232.7,647,232.7,500c0-147,120.3-267.3,267.3-267.3c147,0,267.3,120.3,267.3,267.3C767.3,647,647,767.3,500,767.3z"
         id="path6"
         style="fill:#ffffff" /><path
         d="M500,10C228.3,10,10,228.3,10,500c0,271.7,218.3,490,490,490c271.7,0,490-218.3,490-490C990,228.3,771.7,10,500,10z M500,945.5C255,945.5,54.5,745,54.5,500C54.5,255,255,54.5,500,54.5C745,54.5,945.5,255,945.5,500C945.5,745,745,945.5,500,945.5z"
         id="path8"
         style="fill:#ffffff" /></g></g><g
     id="g14"
     style="fill:#ffffff" /><g
     id="g16"
     style="fill:#ffffff" /><g
     id="g18"
     style="fill:#ffffff" /><g
     id="g20"
     style="fill:#ffffff" /><g
     id="g22"
     style="fill:#ffffff" /><g
     id="g24"
     style="fill:#ffffff" /><g
     id="g26"
     style="fill:#ffffff" /><g
     id="g28"
     style="fill:#ffffff" /><g
     id="g30"
     style="fill:#ffffff" /><g
     id="g32"
     style="fill:#ffffff" /><g
     id="g34"
     style="fill:#ffffff" /><g
     id="g36"
     style="fill:#ffffff" /><g
     id="g38"
     style="fill:#ffffff" /><g
     id="g40"
     style="fill:#ffffff" /><g
     id="g42"
     style="fill:#ffffff" /></g>
</svg>
