<?xml version="1.0" encoding="UTF-8" standalone="no"?>
<!-- Generator: Adobe Illustrator 17.1.0, SVG Export Plug-In . SVG Version: 6.00 Build 0)  -->

<svg
   version="1.1"
   id="Capa_1"
   x="0px"
   y="0px"
   viewBox="0 0 512 512"
   xml:space="preserve"
   sodipodi:docname="screw.svg"
   width="512"
   height="512"
   inkscape:version="1.1.1 (3bf5ae0d25, 2021-09-20)"
   inkscape:export-filename="D:\Projekti\CollimationCircles\Graphics\screw.png"
   inkscape:export-xdpi="24"
   inkscape:export-ydpi="24"
   xmlns:inkscape="http://www.inkscape.org/namespaces/inkscape"
   xmlns:sodipodi="http://sodipodi.sourceforge.net/DTD/sodipodi-0.dtd"
   xmlns="http://www.w3.org/2000/svg"
   xmlns:svg="http://www.w3.org/2000/svg"><defs
   id="defs37" /><sodipodi:namedview
   id="namedview35"
   pagecolor="#ffffff"
   bordercolor="#666666"
   borderopacity="1.0"
   inkscape:pageshadow="2"
   inkscape:pageopacity="0.0"
   inkscape:pagecheckerboard="true"
   showgrid="false"
   inkscape:zoom="0.51886293"
   inkscape:cx="413.40398"
   inkscape:cy="355.58524"
   inkscape:window-width="1920"
   inkscape:window-height="1009"
   inkscape:window-x="-8"
   inkscape:window-y="-8"
   inkscape:window-maximized="1"
   inkscape:current-layer="Capa_1" />
<path
   d="m 455.95254,222.07241 c -0.87854,30.49503 -13.82093,59.74883 -36.44543,82.37125 -1.96866,1.96866 -4.54585,2.95198 -7.12506,2.95198 -2.57921,0 -5.1564,-0.98332 -7.12506,-2.95198 L 207.5546,106.74177 c -1.89008,-1.89007 -2.94997,-4.45114 -2.94997,-7.123028 0,-2.671893 1.06191,-5.234975 2.94997,-7.123031 C 231.08786,68.960491 261.50439,56 293.19843,56 c 29.86442,0 58.16317,11.850225 79.68143,33.370443 l 0.65084,0.650845 c 3.74389,3.743874 3.94942,9.748579 0.47353,13.740292 l -36.02026,41.3559 28.89721,28.89714 41.35802,-36.02017 c 3.99172,-3.47789 9.99644,-3.27236 13.74033,0.47352 l 0.65084,0.65085 c 22.38471,22.38264 34.21885,51.84398 33.32217,82.95359 z m -346.09353,72.38893 -35.224334,37.8639 144.969664,67.89548 38.86948,-36.15719 z m 49.64171,-53.3653 -35.22434,37.86591 150.10592,70.30341 38.86948,-36.1592 z m 182.51326,30.99879 -102.10845,-102.1082 c -1.9344,-1.9344 -4.55593,-3.05676 -7.30641,-2.94996 -2.73437,0.0484 -5.33171,1.209 -7.19559,3.21191 l -51.48544,55.34807 155.2462,72.70932 12.58774,-11.71119 c 2.00292,-1.86388 3.16155,-4.46122 3.20991,-7.19557 0.0504,-2.73235 -1.01355,-5.372 -2.94796,-7.30438 z m -281.796677,75.7298 -1.519315,1.63417 c -3.693508,3.96955 -3.580667,10.15158 0.251875,13.98411 l 89.605337,89.60511 c 1.96463,1.96463 4.54182,2.95198 7.12506,2.95198 2.46033,0 4.92468,-0.89668 6.8611,-2.69809 l 41.15047,-38.281 z"
   id="path2"
   style="fill:#ffffff;stroke-width:2.01501" />
<g
   id="g4">
</g>
<g
   id="g6">
</g>
<g
   id="g8">
</g>
<g
   id="g10">
</g>
<g
   id="g12">
</g>
<g
   id="g14">
</g>
<g
   id="g16">
</g>
<g
   id="g18">
</g>
<g
   id="g20">
</g>
<g
   id="g22">
</g>
<g
   id="g24">
</g>
<g
   id="g26">
</g>
<g
   id="g28">
</g>
<g
   id="g30">
</g>
<g
   id="g32">
</g>
</svg>
