<?xml version="1.0" ?><!DOCTYPE svg  PUBLIC '-//W3C//DTD SVG 1.1//EN'  'http://www.w3.org/Graphics/SVG/1.1/DTD/svg11.dtd'><svg enable-background="new 0 0 60 71" height="71px" id="Layer_1" version="1.1" viewBox="0 0 60 71" width="60px" xml:space="preserve" xmlns="http://www.w3.org/2000/svg" xmlns:xlink="http://www.w3.org/1999/xlink"><g><path d="M57,32h-2.581c-1.374-3.881-5.067-6.667-9.419-6.667S36.955,28.119,35.581,32H3c-1.657,0-3,1.343-3,3   c0,1.656,1.343,3,3,3h32.371c1.168,4.227,5.031,7.334,9.629,7.334s8.461-3.107,9.629-7.334H57c1.657,0,3-1.344,3-3   C60,33.343,58.657,32,57,32z" fill="#231F20"/><path d="M57,58H24.419c-1.374-3.881-5.067-6.666-9.419-6.666S6.955,54.119,5.581,58H3c-1.657,0-3,1.344-3,3   s1.343,3,3,3h2.371c1.168,4.227,5.031,7.334,9.629,7.334s8.461-3.107,9.629-7.334H57c1.657,0,3-1.344,3-3S58.657,58,57,58z" fill="#231F20"/><path d="M3,13h2.371c1.168,4.227,5.031,7.333,9.629,7.333s8.461-3.107,9.629-7.333H57c1.657,0,3-1.343,3-3   s-1.343-3-3-3H24.419C23.045,3.119,19.352,0.333,15,0.333S6.955,3.119,5.581,7H3c-1.657,0-3,1.343-3,3S1.343,13,3,13z" fill="#231F20"/></g></svg>