<?xml version="1.0" encoding="UTF-8" standalone="no"?>
<!-- Generator: Adobe Illustrator 16.0.0, SVG Export Plug-In . SVG Version: 6.00 Build 0)  -->

<svg
   version="1.1"
   id="Capa_1"
   x="0px"
   y="0px"
   width="612px"
   height="612px"
   viewBox="0 0 612 612"
   style="enable-background:new 0 0 612 612;"
   xml:space="preserve"
   sodipodi:docname="ic_launcher.svg"
   inkscape:export-filename="D:\Projekti\CollimationCircles\CollimationCircles\Resources\Images\ic_launcher.png"
   inkscape:export-xdpi="5.02"
   inkscape:export-ydpi="5.02"
   inkscape:version="1.1.1 (3bf5ae0d25, 2021-09-20)"
   xmlns:inkscape="http://www.inkscape.org/namespaces/inkscape"
   xmlns:sodipodi="http://sodipodi.sourceforge.net/DTD/sodipodi-0.dtd"
   xmlns="http://www.w3.org/2000/svg"
   xmlns:svg="http://www.w3.org/2000/svg"><defs
   id="defs39" /><sodipodi:namedview
   id="namedview37"
   pagecolor="#ffffff"
   bordercolor="#666666"
   borderopacity="1.0"
   inkscape:pageshadow="2"
   inkscape:pageopacity="0.0"
   inkscape:pagecheckerboard="true"
   showgrid="false"
   inkscape:zoom="1.3464052"
   inkscape:cx="239.5267"
   inkscape:cy="306.37136"
   inkscape:window-width="1920"
   inkscape:window-height="1009"
   inkscape:window-x="-8"
   inkscape:window-y="-8"
   inkscape:window-maximized="1"
   inkscape:current-layer="Capa_1" />
<g
   id="g4"
   inkscape:export-filename="D:\Projekti\CollimationCircles\CollimationCircles\Resources\Images\ic_launcher.png"
   inkscape:export-xdpi="5.02"
   inkscape:export-ydpi="5.02">
	<path
   d="M306,612c-19.95,0-35.624-19.003-35.624-43.23v-57.296c-86.949-14.956-154.895-82.901-169.821-169.821H43.23   C19.003,341.652,0,325.979,0,306c0-19.95,19.003-35.595,43.23-35.595h57.325c14.927-86.978,82.873-154.923,169.821-169.821V43.23   C270.376,19.405,286.365,0,306,0s35.623,19.405,35.623,43.23v57.354c86.949,14.927,154.895,82.844,169.822,169.821h57.324   c24.228,0,43.23,15.645,43.23,35.595c0,19.979-19.003,35.652-43.23,35.652h-57.324c-14.956,86.92-82.873,154.865-169.822,169.821   v57.296C341.623,592.997,325.95,612,306,612z M43.23,293.398c-11.941,0-20.237,6.631-20.237,12.602   c0,5.999,8.296,12.659,20.237,12.659h67.257c5.798,0,10.678,4.334,11.396,10.104c10.334,84.623,76.729,151.02,161.382,161.382   c5.741,0.718,10.104,5.598,10.104,11.396v67.229c0,11.941,6.631,20.237,12.63,20.237c5.999,0,12.631-8.296,12.631-20.237v-67.229   c0-5.798,4.334-10.678,10.104-11.396c84.652-10.362,151.049-76.759,161.382-161.382c0.718-5.741,5.598-10.104,11.396-10.104h67.257   c11.941,0,20.237-6.66,20.237-12.659c0-5.971-8.296-12.602-20.237-12.602h-67.257c-5.799,0-10.679-4.334-11.396-10.104   c-10.334-84.681-76.729-151.077-161.382-161.382c-5.741-0.718-10.104-5.598-10.104-11.396V43.23   c0-11.941-6.632-20.237-12.631-20.237c-6,0-12.63,8.296-12.63,20.237v67.286c0,5.798-4.334,10.678-10.104,11.396   c-84.652,10.305-151.048,76.701-161.382,161.382c-0.718,5.741-5.598,10.104-11.396,10.104H43.23L43.23,293.398z M330.142,470.77   c-2.728,0-5.396-0.977-7.464-2.785c-2.555-2.182-4.047-5.367-4.047-8.726V330.142c0-6.345,5.167-11.482,11.481-11.482h129.089   c3.358,0,6.545,1.492,8.727,4.048c2.182,2.555,3.129,5.913,2.641,9.214c-11.224,71.706-66.941,127.424-138.647,138.705   C331.318,470.712,330.716,470.77,330.142,470.77z M341.623,341.652v103.54c50.981-12.946,90.623-52.588,103.541-103.54H341.623z    M281.859,470.77c-0.603,0-1.177-0.058-1.78-0.144c-71.707-11.281-127.423-66.999-138.647-138.705   c-0.517-3.301,0.459-6.659,2.641-9.214c2.182-2.556,5.368-4.048,8.726-4.048h129.088c6.344,0,11.482,5.167,11.482,11.482v129.146   c0,3.358-1.493,6.545-4.047,8.727C287.255,469.793,284.586,470.77,281.859,470.77z M166.836,341.652   c12.917,50.952,52.56,90.594,103.541,103.54v-103.54H166.836z M459.229,293.398H330.142c-6.345,0-11.482-5.167-11.482-11.482   V152.771c0-3.359,1.492-6.545,4.048-8.727c2.525-2.182,5.884-3.129,9.214-2.641c71.735,11.224,127.452,66.941,138.676,138.705   c0.517,3.301-0.459,6.66-2.641,9.215S462.588,293.398,459.229,293.398z M341.623,270.405h103.541   c-12.918-51.01-52.56-90.652-103.541-103.569V270.405z M281.859,293.398H152.771c-3.359,0-6.545-1.493-8.727-4.048   c-2.182-2.555-3.129-5.913-2.612-9.214c11.224-71.706,66.941-127.423,138.647-138.705c3.473-0.488,6.717,0.488,9.243,2.641   c2.555,2.182,4.047,5.368,4.047,8.726v129.088C293.37,288.231,288.203,293.398,281.859,293.398z M166.836,270.405h103.541V166.836   C219.396,179.811,179.753,219.453,166.836,270.405z"
   id="path2" />
</g>
<g
   id="g6">
</g>
<g
   id="g8">
</g>
<g
   id="g10">
</g>
<g
   id="g12">
</g>
<g
   id="g14">
</g>
<g
   id="g16">
</g>
<g
   id="g18">
</g>
<g
   id="g20">
</g>
<g
   id="g22">
</g>
<g
   id="g24">
</g>
<g
   id="g26">
</g>
<g
   id="g28">
</g>
<g
   id="g30">
</g>
<g
   id="g32">
</g>
<g
   id="g34">
</g>
</svg>
